<mxfile host="Electron" agent="Mozilla/5.0 (Windows NT 10.0; Win64; x64) AppleWebKit/537.36 (KHTML, like Gecko) draw.io/24.7.8 Chrome/128.0.6613.36 Electron/32.0.1 Safari/537.36" version="24.7.8">
  <diagram name="第 1 页" id="XTwKxFAp_2Ht2jpDPjbG">
    <mxGraphModel dx="4434" dy="635" grid="1" gridSize="10" guides="1" tooltips="1" connect="1" arrows="1" fold="1" page="1" pageScale="1" pageWidth="3300" pageHeight="4681" math="0" shadow="0">
      <root>
        <mxCell id="0" />
        <mxCell id="1" parent="0" />
        <mxCell id="Alu5xl9GDpvNmdIx2iPC-51" style="edgeStyle=orthogonalEdgeStyle;rounded=0;orthogonalLoop=1;jettySize=auto;html=1;exitX=0;exitY=0.75;exitDx=0;exitDy=0;entryX=1;entryY=0.25;entryDx=0;entryDy=0;" parent="1" source="Alu5xl9GDpvNmdIx2iPC-2" target="Alu5xl9GDpvNmdIx2iPC-50" edge="1">
          <mxGeometry relative="1" as="geometry" />
        </mxCell>
        <mxCell id="Alu5xl9GDpvNmdIx2iPC-2" value="repository" style="rounded=0;whiteSpace=wrap;html=1;" parent="1" vertex="1">
          <mxGeometry x="420" y="160" width="120" height="60" as="geometry" />
        </mxCell>
        <mxCell id="Alu5xl9GDpvNmdIx2iPC-16" style="edgeStyle=orthogonalEdgeStyle;rounded=0;orthogonalLoop=1;jettySize=auto;html=1;exitX=0.25;exitY=1;exitDx=0;exitDy=0;entryX=0.75;entryY=0;entryDx=0;entryDy=0;" parent="1" source="Alu5xl9GDpvNmdIx2iPC-8" target="Alu5xl9GDpvNmdIx2iPC-15" edge="1">
          <mxGeometry relative="1" as="geometry" />
        </mxCell>
        <mxCell id="Alu5xl9GDpvNmdIx2iPC-17" value="find" style="edgeLabel;html=1;align=center;verticalAlign=middle;resizable=0;points=[];" parent="Alu5xl9GDpvNmdIx2iPC-16" vertex="1" connectable="0">
          <mxGeometry x="-0.2" y="1" relative="1" as="geometry">
            <mxPoint as="offset" />
          </mxGeometry>
        </mxCell>
        <mxCell id="Alu5xl9GDpvNmdIx2iPC-18" style="edgeStyle=orthogonalEdgeStyle;rounded=0;orthogonalLoop=1;jettySize=auto;html=1;exitX=0.75;exitY=1;exitDx=0;exitDy=0;entryX=0.25;entryY=0;entryDx=0;entryDy=0;" parent="1" source="Alu5xl9GDpvNmdIx2iPC-8" target="Alu5xl9GDpvNmdIx2iPC-14" edge="1">
          <mxGeometry relative="1" as="geometry" />
        </mxCell>
        <mxCell id="Alu5xl9GDpvNmdIx2iPC-19" value="find" style="edgeLabel;html=1;align=center;verticalAlign=middle;resizable=0;points=[];" parent="Alu5xl9GDpvNmdIx2iPC-18" vertex="1" connectable="0">
          <mxGeometry x="0.1394" y="-2" relative="1" as="geometry">
            <mxPoint as="offset" />
          </mxGeometry>
        </mxCell>
        <mxCell id="Alu5xl9GDpvNmdIx2iPC-60" style="edgeStyle=orthogonalEdgeStyle;rounded=0;orthogonalLoop=1;jettySize=auto;html=1;exitX=0.75;exitY=0;exitDx=0;exitDy=0;entryX=0.75;entryY=1;entryDx=0;entryDy=0;" parent="1" source="Alu5xl9GDpvNmdIx2iPC-8" target="Alu5xl9GDpvNmdIx2iPC-58" edge="1">
          <mxGeometry relative="1" as="geometry" />
        </mxCell>
        <mxCell id="Alu5xl9GDpvNmdIx2iPC-61" value="getset" style="edgeLabel;html=1;align=center;verticalAlign=middle;resizable=0;points=[];" parent="Alu5xl9GDpvNmdIx2iPC-60" vertex="1" connectable="0">
          <mxGeometry x="0.2533" y="-3" relative="1" as="geometry">
            <mxPoint as="offset" />
          </mxGeometry>
        </mxCell>
        <mxCell id="Alu5xl9GDpvNmdIx2iPC-8" value="orm" style="rounded=0;whiteSpace=wrap;html=1;" parent="1" vertex="1">
          <mxGeometry x="50" y="160" width="120" height="60" as="geometry" />
        </mxCell>
        <mxCell id="Alu5xl9GDpvNmdIx2iPC-10" style="edgeStyle=orthogonalEdgeStyle;rounded=0;orthogonalLoop=1;jettySize=auto;html=1;exitX=0.25;exitY=1;exitDx=0;exitDy=0;entryX=0.25;entryY=0;entryDx=0;entryDy=0;" parent="1" source="Alu5xl9GDpvNmdIx2iPC-9" target="Alu5xl9GDpvNmdIx2iPC-2" edge="1">
          <mxGeometry relative="1" as="geometry" />
        </mxCell>
        <mxCell id="Alu5xl9GDpvNmdIx2iPC-11" value="find aggegate&lt;div&gt;&lt;br&gt;&lt;/div&gt;" style="edgeLabel;html=1;align=center;verticalAlign=middle;resizable=0;points=[];" parent="Alu5xl9GDpvNmdIx2iPC-10" vertex="1" connectable="0">
          <mxGeometry y="-1" relative="1" as="geometry">
            <mxPoint as="offset" />
          </mxGeometry>
        </mxCell>
        <mxCell id="Alu5xl9GDpvNmdIx2iPC-32" style="edgeStyle=orthogonalEdgeStyle;rounded=0;orthogonalLoop=1;jettySize=auto;html=1;exitX=1;exitY=0.75;exitDx=0;exitDy=0;entryX=1;entryY=0.25;entryDx=0;entryDy=0;" parent="1" source="Alu5xl9GDpvNmdIx2iPC-9" target="Alu5xl9GDpvNmdIx2iPC-26" edge="1">
          <mxGeometry relative="1" as="geometry" />
        </mxCell>
        <mxCell id="Alu5xl9GDpvNmdIx2iPC-33" value="getset" style="edgeLabel;html=1;align=center;verticalAlign=middle;resizable=0;points=[];" parent="Alu5xl9GDpvNmdIx2iPC-32" vertex="1" connectable="0">
          <mxGeometry x="0.7009" y="-2" relative="1" as="geometry">
            <mxPoint as="offset" />
          </mxGeometry>
        </mxCell>
        <mxCell id="Alu5xl9GDpvNmdIx2iPC-47" style="edgeStyle=orthogonalEdgeStyle;rounded=0;orthogonalLoop=1;jettySize=auto;html=1;exitX=1;exitY=0.25;exitDx=0;exitDy=0;entryX=1;entryY=0.75;entryDx=0;entryDy=0;" parent="1" source="Alu5xl9GDpvNmdIx2iPC-9" target="Alu5xl9GDpvNmdIx2iPC-26" edge="1">
          <mxGeometry relative="1" as="geometry">
            <Array as="points">
              <mxPoint x="630" y="35" />
              <mxPoint x="630" y="405" />
            </Array>
          </mxGeometry>
        </mxCell>
        <mxCell id="Alu5xl9GDpvNmdIx2iPC-48" value="method call" style="edgeLabel;html=1;align=center;verticalAlign=middle;resizable=0;points=[];" parent="Alu5xl9GDpvNmdIx2iPC-47" vertex="1" connectable="0">
          <mxGeometry x="0.8333" relative="1" as="geometry">
            <mxPoint as="offset" />
          </mxGeometry>
        </mxCell>
        <mxCell id="Alu5xl9GDpvNmdIx2iPC-56" style="edgeStyle=orthogonalEdgeStyle;rounded=0;orthogonalLoop=1;jettySize=auto;html=1;exitX=1;exitY=0.5;exitDx=0;exitDy=0;entryX=1;entryY=0.5;entryDx=0;entryDy=0;" parent="1" source="Alu5xl9GDpvNmdIx2iPC-9" target="Alu5xl9GDpvNmdIx2iPC-26" edge="1">
          <mxGeometry relative="1" as="geometry">
            <Array as="points">
              <mxPoint x="600" y="50" />
              <mxPoint x="600" y="390" />
            </Array>
          </mxGeometry>
        </mxCell>
        <mxCell id="Alu5xl9GDpvNmdIx2iPC-57" value="save" style="edgeLabel;html=1;align=center;verticalAlign=middle;resizable=0;points=[];" parent="Alu5xl9GDpvNmdIx2iPC-56" vertex="1" connectable="0">
          <mxGeometry x="-0.0395" relative="1" as="geometry">
            <mxPoint y="40" as="offset" />
          </mxGeometry>
        </mxCell>
        <mxCell id="Alu5xl9GDpvNmdIx2iPC-9" value="cmd" style="rounded=0;whiteSpace=wrap;html=1;" parent="1" vertex="1">
          <mxGeometry x="420" y="20" width="120" height="60" as="geometry" />
        </mxCell>
        <mxCell id="Alu5xl9GDpvNmdIx2iPC-37" style="edgeStyle=orthogonalEdgeStyle;rounded=0;orthogonalLoop=1;jettySize=auto;html=1;exitX=0.25;exitY=1;exitDx=0;exitDy=0;entryX=0.75;entryY=0;entryDx=0;entryDy=0;" parent="1" source="Alu5xl9GDpvNmdIx2iPC-14" target="Alu5xl9GDpvNmdIx2iPC-35" edge="1">
          <mxGeometry relative="1" as="geometry" />
        </mxCell>
        <mxCell id="Alu5xl9GDpvNmdIx2iPC-43" style="edgeStyle=orthogonalEdgeStyle;rounded=0;orthogonalLoop=1;jettySize=auto;html=1;exitX=0.5;exitY=0;exitDx=0;exitDy=0;entryX=1;entryY=1;entryDx=0;entryDy=0;" parent="1" source="Alu5xl9GDpvNmdIx2iPC-14" target="Alu5xl9GDpvNmdIx2iPC-8" edge="1">
          <mxGeometry relative="1" as="geometry" />
        </mxCell>
        <mxCell id="Alu5xl9GDpvNmdIx2iPC-44" value="getset" style="edgeLabel;html=1;align=center;verticalAlign=middle;resizable=0;points=[];" parent="Alu5xl9GDpvNmdIx2iPC-43" vertex="1" connectable="0">
          <mxGeometry x="-0.32" y="-1" relative="1" as="geometry">
            <mxPoint as="offset" />
          </mxGeometry>
        </mxCell>
        <mxCell id="Alu5xl9GDpvNmdIx2iPC-14" value="entity2" style="rounded=0;whiteSpace=wrap;html=1;" parent="1" vertex="1">
          <mxGeometry x="170" y="280" width="90" height="50" as="geometry" />
        </mxCell>
        <mxCell id="Alu5xl9GDpvNmdIx2iPC-36" style="edgeStyle=orthogonalEdgeStyle;rounded=0;orthogonalLoop=1;jettySize=auto;html=1;exitX=0.75;exitY=1;exitDx=0;exitDy=0;entryX=0.25;entryY=0;entryDx=0;entryDy=0;" parent="1" source="Alu5xl9GDpvNmdIx2iPC-15" target="Alu5xl9GDpvNmdIx2iPC-35" edge="1">
          <mxGeometry relative="1" as="geometry" />
        </mxCell>
        <mxCell id="Alu5xl9GDpvNmdIx2iPC-15" value="entity1" style="rounded=0;whiteSpace=wrap;html=1;" parent="1" vertex="1">
          <mxGeometry x="40" y="280" width="90" height="50" as="geometry" />
        </mxCell>
        <mxCell id="Alu5xl9GDpvNmdIx2iPC-30" style="edgeStyle=orthogonalEdgeStyle;rounded=0;orthogonalLoop=1;jettySize=auto;html=1;exitX=1;exitY=0.25;exitDx=0;exitDy=0;entryX=0;entryY=0.5;entryDx=0;entryDy=0;" parent="1" source="Alu5xl9GDpvNmdIx2iPC-21" target="Alu5xl9GDpvNmdIx2iPC-26" edge="1">
          <mxGeometry relative="1" as="geometry" />
        </mxCell>
        <mxCell id="Alu5xl9GDpvNmdIx2iPC-21" value="aggregate" style="rounded=0;whiteSpace=wrap;html=1;" parent="1" vertex="1">
          <mxGeometry x="100" y="460" width="120" height="60" as="geometry" />
        </mxCell>
        <mxCell id="Alu5xl9GDpvNmdIx2iPC-31" style="edgeStyle=orthogonalEdgeStyle;rounded=0;orthogonalLoop=1;jettySize=auto;html=1;exitX=0.75;exitY=0;exitDx=0;exitDy=0;entryX=0.5;entryY=1;entryDx=0;entryDy=0;" parent="1" source="Alu5xl9GDpvNmdIx2iPC-26" target="Alu5xl9GDpvNmdIx2iPC-2" edge="1">
          <mxGeometry relative="1" as="geometry" />
        </mxCell>
        <mxCell id="Alu5xl9GDpvNmdIx2iPC-39" style="edgeStyle=orthogonalEdgeStyle;rounded=0;orthogonalLoop=1;jettySize=auto;html=1;exitX=0;exitY=0.25;exitDx=0;exitDy=0;entryX=1;entryY=0.25;entryDx=0;entryDy=0;" parent="1" source="Alu5xl9GDpvNmdIx2iPC-26" target="Alu5xl9GDpvNmdIx2iPC-35" edge="1">
          <mxGeometry relative="1" as="geometry" />
        </mxCell>
        <mxCell id="Alu5xl9GDpvNmdIx2iPC-41" value="getset" style="edgeLabel;html=1;align=center;verticalAlign=middle;resizable=0;points=[];" parent="Alu5xl9GDpvNmdIx2iPC-39" vertex="1" connectable="0">
          <mxGeometry x="0.2368" y="4" relative="1" as="geometry">
            <mxPoint as="offset" />
          </mxGeometry>
        </mxCell>
        <mxCell id="Alu5xl9GDpvNmdIx2iPC-53" style="edgeStyle=orthogonalEdgeStyle;rounded=0;orthogonalLoop=1;jettySize=auto;html=1;exitX=0.25;exitY=0;exitDx=0;exitDy=0;entryX=0.75;entryY=1;entryDx=0;entryDy=0;" parent="1" source="Alu5xl9GDpvNmdIx2iPC-26" target="Alu5xl9GDpvNmdIx2iPC-50" edge="1">
          <mxGeometry relative="1" as="geometry" />
        </mxCell>
        <mxCell id="Alu5xl9GDpvNmdIx2iPC-54" value="调用函数时进行查询并分析" style="edgeLabel;html=1;align=center;verticalAlign=middle;resizable=0;points=[];" parent="Alu5xl9GDpvNmdIx2iPC-53" vertex="1" connectable="0">
          <mxGeometry x="-0.0088" relative="1" as="geometry">
            <mxPoint as="offset" />
          </mxGeometry>
        </mxCell>
        <mxCell id="Alu5xl9GDpvNmdIx2iPC-26" value="aop" style="rounded=0;whiteSpace=wrap;html=1;" parent="1" vertex="1">
          <mxGeometry x="390" y="360" width="120" height="60" as="geometry" />
        </mxCell>
        <mxCell id="Alu5xl9GDpvNmdIx2iPC-38" style="edgeStyle=orthogonalEdgeStyle;rounded=0;orthogonalLoop=1;jettySize=auto;html=1;exitX=0.5;exitY=1;exitDx=0;exitDy=0;entryX=0.5;entryY=0;entryDx=0;entryDy=0;" parent="1" source="Alu5xl9GDpvNmdIx2iPC-35" target="Alu5xl9GDpvNmdIx2iPC-21" edge="1">
          <mxGeometry relative="1" as="geometry" />
        </mxCell>
        <mxCell id="Alu5xl9GDpvNmdIx2iPC-40" style="edgeStyle=orthogonalEdgeStyle;rounded=0;orthogonalLoop=1;jettySize=auto;html=1;exitX=1;exitY=0;exitDx=0;exitDy=0;entryX=0.75;entryY=1;entryDx=0;entryDy=0;" parent="1" source="Alu5xl9GDpvNmdIx2iPC-35" target="Alu5xl9GDpvNmdIx2iPC-14" edge="1">
          <mxGeometry relative="1" as="geometry" />
        </mxCell>
        <mxCell id="Alu5xl9GDpvNmdIx2iPC-42" value="getset" style="edgeLabel;html=1;align=center;verticalAlign=middle;resizable=0;points=[];" parent="Alu5xl9GDpvNmdIx2iPC-40" vertex="1" connectable="0">
          <mxGeometry x="0.0115" relative="1" as="geometry">
            <mxPoint as="offset" />
          </mxGeometry>
        </mxCell>
        <mxCell id="Alu5xl9GDpvNmdIx2iPC-35" value="map规则" style="rounded=0;whiteSpace=wrap;html=1;" parent="1" vertex="1">
          <mxGeometry x="115" y="370" width="90" height="40" as="geometry" />
        </mxCell>
        <mxCell id="Alu5xl9GDpvNmdIx2iPC-45" value="方式1，传递函数预分析" style="text;html=1;align=center;verticalAlign=middle;whiteSpace=wrap;rounded=0;" parent="1" vertex="1">
          <mxGeometry x="300" y="150" width="80" height="30" as="geometry" />
        </mxCell>
        <mxCell id="Alu5xl9GDpvNmdIx2iPC-52" style="edgeStyle=orthogonalEdgeStyle;rounded=0;orthogonalLoop=1;jettySize=auto;html=1;exitX=0;exitY=0.25;exitDx=0;exitDy=0;entryX=1;entryY=0.5;entryDx=0;entryDy=0;" parent="1" source="Alu5xl9GDpvNmdIx2iPC-50" target="Alu5xl9GDpvNmdIx2iPC-8" edge="1">
          <mxGeometry relative="1" as="geometry" />
        </mxCell>
        <mxCell id="Alu5xl9GDpvNmdIx2iPC-65" value="find所有需要的" style="edgeLabel;html=1;align=center;verticalAlign=middle;resizable=0;points=[];" parent="Alu5xl9GDpvNmdIx2iPC-52" vertex="1" connectable="0">
          <mxGeometry x="0.0125" y="-1" relative="1" as="geometry">
            <mxPoint as="offset" />
          </mxGeometry>
        </mxCell>
        <mxCell id="Alu5xl9GDpvNmdIx2iPC-66" style="edgeStyle=orthogonalEdgeStyle;rounded=0;orthogonalLoop=1;jettySize=auto;html=1;exitX=0.25;exitY=0;exitDx=0;exitDy=0;entryX=1;entryY=0;entryDx=0;entryDy=0;" parent="1" source="Alu5xl9GDpvNmdIx2iPC-50" target="Alu5xl9GDpvNmdIx2iPC-8" edge="1">
          <mxGeometry relative="1" as="geometry" />
        </mxCell>
        <mxCell id="Alu5xl9GDpvNmdIx2iPC-67" value="增量查找(过滤掉已经查找过的)" style="edgeLabel;html=1;align=center;verticalAlign=middle;resizable=0;points=[];" parent="Alu5xl9GDpvNmdIx2iPC-66" vertex="1" connectable="0">
          <mxGeometry x="0.0167" relative="1" as="geometry">
            <mxPoint as="offset" />
          </mxGeometry>
        </mxCell>
        <mxCell id="Alu5xl9GDpvNmdIx2iPC-50" value="analysisNeededField" style="rounded=0;whiteSpace=wrap;html=1;" parent="1" vertex="1">
          <mxGeometry x="270" y="190" width="120" height="40" as="geometry" />
        </mxCell>
        <mxCell id="Alu5xl9GDpvNmdIx2iPC-55" value="方式2，调用的时候才会去查询" style="text;html=1;align=center;verticalAlign=middle;whiteSpace=wrap;rounded=0;" parent="1" vertex="1">
          <mxGeometry x="360" y="250" width="90" height="30" as="geometry" />
        </mxCell>
        <mxCell id="Alu5xl9GDpvNmdIx2iPC-58" value="changedEntity" style="rounded=0;whiteSpace=wrap;html=1;" parent="1" vertex="1">
          <mxGeometry x="60" y="50" width="120" height="60" as="geometry" />
        </mxCell>
        <mxCell id="Alu5xl9GDpvNmdIx2iPC-62" style="edgeStyle=orthogonalEdgeStyle;rounded=0;orthogonalLoop=1;jettySize=auto;html=1;exitX=0;exitY=0;exitDx=0;exitDy=0;entryX=1.007;entryY=0.881;entryDx=0;entryDy=0;entryPerimeter=0;" parent="1" source="Alu5xl9GDpvNmdIx2iPC-26" target="Alu5xl9GDpvNmdIx2iPC-8" edge="1">
          <mxGeometry relative="1" as="geometry">
            <Array as="points">
              <mxPoint x="280" y="360" />
              <mxPoint x="280" y="220" />
              <mxPoint x="201" y="220" />
            </Array>
          </mxGeometry>
        </mxCell>
        <mxCell id="Alu5xl9GDpvNmdIx2iPC-68" value="save" style="edgeLabel;html=1;align=center;verticalAlign=middle;resizable=0;points=[];" parent="Alu5xl9GDpvNmdIx2iPC-62" vertex="1" connectable="0">
          <mxGeometry x="-0.0425" y="-1" relative="1" as="geometry">
            <mxPoint as="offset" />
          </mxGeometry>
        </mxCell>
        <mxCell id="Alu5xl9GDpvNmdIx2iPC-63" style="edgeStyle=orthogonalEdgeStyle;rounded=0;orthogonalLoop=1;jettySize=auto;html=1;exitX=0.5;exitY=0;exitDx=0;exitDy=0;entryX=0.333;entryY=0.978;entryDx=0;entryDy=0;entryPerimeter=0;" parent="1" source="Alu5xl9GDpvNmdIx2iPC-8" target="Alu5xl9GDpvNmdIx2iPC-58" edge="1">
          <mxGeometry relative="1" as="geometry" />
        </mxCell>
        <mxCell id="Alu5xl9GDpvNmdIx2iPC-64" value="save" style="edgeLabel;html=1;align=center;verticalAlign=middle;resizable=0;points=[];" parent="Alu5xl9GDpvNmdIx2iPC-63" vertex="1" connectable="0">
          <mxGeometry x="-0.2232" y="-2" relative="1" as="geometry">
            <mxPoint as="offset" />
          </mxGeometry>
        </mxCell>
        <mxCell id="Alu5xl9GDpvNmdIx2iPC-69" value="tempEntity" style="rounded=0;whiteSpace=wrap;html=1;" parent="1" vertex="1">
          <mxGeometry x="205" y="50" width="120" height="60" as="geometry" />
        </mxCell>
        <mxCell id="Alu5xl9GDpvNmdIx2iPC-70" value="aggregate" style="rounded=0;whiteSpace=wrap;html=1;" parent="1" vertex="1">
          <mxGeometry x="890" y="610" width="120" height="60" as="geometry" />
        </mxCell>
        <mxCell id="c_RxVuTjA5YSDgOJ-YrA-5" style="edgeStyle=orthogonalEdgeStyle;rounded=0;orthogonalLoop=1;jettySize=auto;html=1;exitX=0.5;exitY=1;exitDx=0;exitDy=0;" parent="1" source="Alu5xl9GDpvNmdIx2iPC-71" target="Alu5xl9GDpvNmdIx2iPC-80" edge="1">
          <mxGeometry relative="1" as="geometry" />
        </mxCell>
        <mxCell id="Alu5xl9GDpvNmdIx2iPC-71" value="parent entity" style="rounded=0;whiteSpace=wrap;html=1;" parent="1" vertex="1">
          <mxGeometry x="870" y="100" width="120" height="60" as="geometry" />
        </mxCell>
        <mxCell id="c_RxVuTjA5YSDgOJ-YrA-7" style="edgeStyle=orthogonalEdgeStyle;rounded=0;orthogonalLoop=1;jettySize=auto;html=1;exitX=1;exitY=0.5;exitDx=0;exitDy=0;entryX=0.5;entryY=0;entryDx=0;entryDy=0;" parent="1" source="Alu5xl9GDpvNmdIx2iPC-72" target="c_RxVuTjA5YSDgOJ-YrA-4" edge="1">
          <mxGeometry relative="1" as="geometry" />
        </mxCell>
        <mxCell id="Alu5xl9GDpvNmdIx2iPC-72" value="child1" style="rounded=0;whiteSpace=wrap;html=1;" parent="1" vertex="1">
          <mxGeometry x="1050" y="100" width="120" height="60" as="geometry" />
        </mxCell>
        <mxCell id="c_RxVuTjA5YSDgOJ-YrA-8" style="edgeStyle=orthogonalEdgeStyle;rounded=0;orthogonalLoop=1;jettySize=auto;html=1;exitX=0;exitY=0.5;exitDx=0;exitDy=0;entryX=0.5;entryY=0;entryDx=0;entryDy=0;" parent="1" source="Alu5xl9GDpvNmdIx2iPC-73" target="c_RxVuTjA5YSDgOJ-YrA-4" edge="1">
          <mxGeometry relative="1" as="geometry" />
        </mxCell>
        <mxCell id="Alu5xl9GDpvNmdIx2iPC-73" value="child2" style="rounded=0;whiteSpace=wrap;html=1;" parent="1" vertex="1">
          <mxGeometry x="1230" y="100" width="120" height="60" as="geometry" />
        </mxCell>
        <mxCell id="Alu5xl9GDpvNmdIx2iPC-74" value="list" style="rounded=0;whiteSpace=wrap;html=1;" parent="1" vertex="1">
          <mxGeometry x="1100" y="610" width="120" height="60" as="geometry" />
        </mxCell>
        <mxCell id="Alu5xl9GDpvNmdIx2iPC-78" style="edgeStyle=orthogonalEdgeStyle;rounded=0;orthogonalLoop=1;jettySize=auto;html=1;exitX=1;exitY=0.5;exitDx=0;exitDy=0;entryX=0.25;entryY=0;entryDx=0;entryDy=0;" parent="1" source="Alu5xl9GDpvNmdIx2iPC-76" target="Alu5xl9GDpvNmdIx2iPC-74" edge="1">
          <mxGeometry relative="1" as="geometry" />
        </mxCell>
        <mxCell id="Alu5xl9GDpvNmdIx2iPC-76" value="entity1" style="rounded=0;whiteSpace=wrap;html=1;" parent="1" vertex="1">
          <mxGeometry x="970" y="500" width="120" height="60" as="geometry" />
        </mxCell>
        <mxCell id="Alu5xl9GDpvNmdIx2iPC-79" style="edgeStyle=orthogonalEdgeStyle;rounded=0;orthogonalLoop=1;jettySize=auto;html=1;exitX=0;exitY=0.5;exitDx=0;exitDy=0;entryX=0.25;entryY=0;entryDx=0;entryDy=0;" parent="1" source="Alu5xl9GDpvNmdIx2iPC-77" target="Alu5xl9GDpvNmdIx2iPC-74" edge="1">
          <mxGeometry relative="1" as="geometry" />
        </mxCell>
        <mxCell id="Alu5xl9GDpvNmdIx2iPC-77" value="entity2" style="rounded=0;whiteSpace=wrap;html=1;" parent="1" vertex="1">
          <mxGeometry x="1170" y="500" width="120" height="60" as="geometry" />
        </mxCell>
        <mxCell id="Alu5xl9GDpvNmdIx2iPC-80" value="ormObject1" style="rounded=0;whiteSpace=wrap;html=1;" parent="1" vertex="1">
          <mxGeometry x="880" y="230" width="100" height="40" as="geometry" />
        </mxCell>
        <mxCell id="Alu5xl9GDpvNmdIx2iPC-81" value="压缩" style="rounded=0;whiteSpace=wrap;html=1;" parent="1" vertex="1">
          <mxGeometry x="680" y="100" width="120" height="60" as="geometry" />
        </mxCell>
        <mxCell id="Alu5xl9GDpvNmdIx2iPC-82" value="合并列表" style="rounded=0;whiteSpace=wrap;html=1;" parent="1" vertex="1">
          <mxGeometry x="680" y="500" width="120" height="60" as="geometry" />
        </mxCell>
        <mxCell id="Alu5xl9GDpvNmdIx2iPC-83" value="运行期获取类" style="rounded=0;whiteSpace=wrap;html=1;" parent="1" vertex="1">
          <mxGeometry x="660" y="830" width="120" height="60" as="geometry" />
        </mxCell>
        <mxCell id="Alu5xl9GDpvNmdIx2iPC-85" value="parent entity" style="rounded=0;whiteSpace=wrap;html=1;" parent="1" vertex="1">
          <mxGeometry x="845" y="810" width="120" height="60" as="geometry" />
        </mxCell>
        <mxCell id="Alu5xl9GDpvNmdIx2iPC-86" value="child1" style="rounded=0;whiteSpace=wrap;html=1;" parent="1" vertex="1">
          <mxGeometry x="1025" y="810" width="120" height="60" as="geometry" />
        </mxCell>
        <mxCell id="Alu5xl9GDpvNmdIx2iPC-87" value="child2" style="rounded=0;whiteSpace=wrap;html=1;" parent="1" vertex="1">
          <mxGeometry x="1205" y="810" width="120" height="60" as="geometry" />
        </mxCell>
        <mxCell id="Alu5xl9GDpvNmdIx2iPC-94" style="edgeStyle=orthogonalEdgeStyle;rounded=0;orthogonalLoop=1;jettySize=auto;html=1;exitX=0.75;exitY=0;exitDx=0;exitDy=0;entryX=0.75;entryY=1;entryDx=0;entryDy=0;" parent="1" source="Alu5xl9GDpvNmdIx2iPC-88" target="Alu5xl9GDpvNmdIx2iPC-85" edge="1">
          <mxGeometry relative="1" as="geometry" />
        </mxCell>
        <mxCell id="Alu5xl9GDpvNmdIx2iPC-97" style="edgeStyle=orthogonalEdgeStyle;rounded=0;orthogonalLoop=1;jettySize=auto;html=1;exitX=0.75;exitY=0;exitDx=0;exitDy=0;entryX=0.25;entryY=1;entryDx=0;entryDy=0;" parent="1" source="Alu5xl9GDpvNmdIx2iPC-88" target="Alu5xl9GDpvNmdIx2iPC-86" edge="1">
          <mxGeometry relative="1" as="geometry" />
        </mxCell>
        <mxCell id="Alu5xl9GDpvNmdIx2iPC-98" style="edgeStyle=orthogonalEdgeStyle;rounded=0;orthogonalLoop=1;jettySize=auto;html=1;exitX=0.75;exitY=0;exitDx=0;exitDy=0;entryX=0.25;entryY=1;entryDx=0;entryDy=0;" parent="1" source="Alu5xl9GDpvNmdIx2iPC-88" target="Alu5xl9GDpvNmdIx2iPC-87" edge="1">
          <mxGeometry relative="1" as="geometry" />
        </mxCell>
        <mxCell id="Alu5xl9GDpvNmdIx2iPC-88" value="aggregate parent" style="rounded=0;whiteSpace=wrap;html=1;" parent="1" vertex="1">
          <mxGeometry x="845" y="1050" width="120" height="60" as="geometry" />
        </mxCell>
        <mxCell id="Alu5xl9GDpvNmdIx2iPC-95" style="edgeStyle=orthogonalEdgeStyle;rounded=0;orthogonalLoop=1;jettySize=auto;html=1;exitX=0;exitY=0.25;exitDx=0;exitDy=0;entryX=1;entryY=0.25;entryDx=0;entryDy=0;" parent="1" source="Alu5xl9GDpvNmdIx2iPC-89" target="Alu5xl9GDpvNmdIx2iPC-88" edge="1">
          <mxGeometry relative="1" as="geometry" />
        </mxCell>
        <mxCell id="Alu5xl9GDpvNmdIx2iPC-89" value="aggregate child 1" style="rounded=0;whiteSpace=wrap;html=1;" parent="1" vertex="1">
          <mxGeometry x="1045" y="1050" width="120" height="60" as="geometry" />
        </mxCell>
        <mxCell id="Alu5xl9GDpvNmdIx2iPC-90" value="aggregate child 2" style="rounded=0;whiteSpace=wrap;html=1;" parent="1" vertex="1">
          <mxGeometry x="1225" y="1050" width="120" height="60" as="geometry" />
        </mxCell>
        <mxCell id="Alu5xl9GDpvNmdIx2iPC-92" style="edgeStyle=orthogonalEdgeStyle;rounded=0;orthogonalLoop=1;jettySize=auto;html=1;exitX=0.5;exitY=0;exitDx=0;exitDy=0;entryX=0.25;entryY=1;entryDx=0;entryDy=0;" parent="1" source="Alu5xl9GDpvNmdIx2iPC-91" target="Alu5xl9GDpvNmdIx2iPC-89" edge="1">
          <mxGeometry relative="1" as="geometry" />
        </mxCell>
        <mxCell id="Alu5xl9GDpvNmdIx2iPC-91" value="get" style="rounded=0;whiteSpace=wrap;html=1;" parent="1" vertex="1">
          <mxGeometry x="1015" y="1210" width="120" height="60" as="geometry" />
        </mxCell>
        <mxCell id="Alu5xl9GDpvNmdIx2iPC-93" value="parententity，child" style="text;html=1;align=center;verticalAlign=middle;whiteSpace=wrap;rounded=0;" parent="1" vertex="1">
          <mxGeometry x="715" y="1020" width="210" height="30" as="geometry" />
        </mxCell>
        <mxCell id="Alu5xl9GDpvNmdIx2iPC-99" value="1.获取所有相关id&lt;div&gt;2.查询child1的某字段&lt;/div&gt;" style="text;html=1;align=center;verticalAlign=middle;whiteSpace=wrap;rounded=0;" parent="1" vertex="1">
          <mxGeometry x="605" y="910" width="230" height="110" as="geometry" />
        </mxCell>
        <mxCell id="Alu5xl9GDpvNmdIx2iPC-100" value="parententity，child" style="text;html=1;align=center;verticalAlign=middle;whiteSpace=wrap;rounded=0;" parent="1" vertex="1">
          <mxGeometry x="1025" y="1020" width="130" height="30" as="geometry" />
        </mxCell>
        <mxCell id="c_RxVuTjA5YSDgOJ-YrA-1" value="表继承" style="rounded=0;whiteSpace=wrap;html=1;" parent="1" vertex="1">
          <mxGeometry x="1400" y="100" width="120" height="60" as="geometry" />
        </mxCell>
        <mxCell id="c_RxVuTjA5YSDgOJ-YrA-2" value="&lt;div data-lark-html-role=&quot;root&quot;&gt;&lt;span class=&quot;universal-card-text&quot;&gt;单表继承+&lt;/span&gt;&lt;span style=&quot;background-color: initial;&quot;&gt;“鉴别列”&lt;/span&gt;&lt;/div&gt;" style="rounded=0;whiteSpace=wrap;html=1;" parent="1" vertex="1">
          <mxGeometry x="1400" y="500" width="120" height="60" as="geometry" />
        </mxCell>
        <mxCell id="c_RxVuTjA5YSDgOJ-YrA-3" value="&lt;div data-lark-html-role=&quot;root&quot;&gt;&lt;span class=&quot;universal-card-text&quot;&gt;每个具体子类单独建表&lt;/span&gt;&lt;/div&gt;" style="rounded=0;whiteSpace=wrap;html=1;" parent="1" vertex="1">
          <mxGeometry x="1400" y="640" width="120" height="60" as="geometry" />
        </mxCell>
        <mxCell id="c_RxVuTjA5YSDgOJ-YrA-4" value="ormObject2" style="rounded=0;whiteSpace=wrap;html=1;" parent="1" vertex="1">
          <mxGeometry x="1155" y="240" width="100" height="40" as="geometry" />
        </mxCell>
        <mxCell id="c_RxVuTjA5YSDgOJ-YrA-9" value="动态判断，非空选择" style="text;html=1;align=center;verticalAlign=middle;resizable=0;points=[];autosize=1;strokeColor=none;fillColor=none;" parent="1" vertex="1">
          <mxGeometry x="1135" y="98" width="130" height="30" as="geometry" />
        </mxCell>
        <mxCell id="OivCTFusflsnZYE-OFXO-4" value="construct" style="rounded=0;whiteSpace=wrap;html=1;" vertex="1" parent="1">
          <mxGeometry x="25" y="570" width="95" height="50" as="geometry" />
        </mxCell>
        <mxCell id="OivCTFusflsnZYE-OFXO-5" value="get base" style="rounded=0;whiteSpace=wrap;html=1;" vertex="1" parent="1">
          <mxGeometry x="140" y="570" width="90" height="50" as="geometry" />
        </mxCell>
        <mxCell id="OivCTFusflsnZYE-OFXO-6" value="set base" style="rounded=0;whiteSpace=wrap;html=1;" vertex="1" parent="1">
          <mxGeometry x="240" y="570" width="90" height="50" as="geometry" />
        </mxCell>
        <mxCell id="OivCTFusflsnZYE-OFXO-16" value="list add" style="rounded=0;whiteSpace=wrap;html=1;" vertex="1" parent="1">
          <mxGeometry x="205" y="640" width="80" height="40" as="geometry" />
        </mxCell>
        <mxCell id="OivCTFusflsnZYE-OFXO-17" value="get list" style="rounded=0;whiteSpace=wrap;html=1;" vertex="1" parent="1">
          <mxGeometry x="85" y="640" width="85" height="40" as="geometry" />
        </mxCell>
        <mxCell id="OivCTFusflsnZYE-OFXO-18" value="get entity" style="rounded=0;whiteSpace=wrap;html=1;" vertex="1" parent="1">
          <mxGeometry x="350" y="570" width="80" height="40" as="geometry" />
        </mxCell>
        <mxCell id="OivCTFusflsnZYE-OFXO-19" value="domain" style="swimlane;whiteSpace=wrap;html=1;" vertex="1" parent="1">
          <mxGeometry x="-55" y="700" width="680" height="250" as="geometry" />
        </mxCell>
        <mxCell id="OivCTFusflsnZYE-OFXO-43" style="edgeStyle=orthogonalEdgeStyle;rounded=0;orthogonalLoop=1;jettySize=auto;html=1;exitX=0.25;exitY=1;exitDx=0;exitDy=0;entryX=0.5;entryY=0;entryDx=0;entryDy=0;" edge="1" parent="OivCTFusflsnZYE-OFXO-19" source="OivCTFusflsnZYE-OFXO-20" target="OivCTFusflsnZYE-OFXO-30">
          <mxGeometry relative="1" as="geometry" />
        </mxCell>
        <mxCell id="OivCTFusflsnZYE-OFXO-44" style="edgeStyle=orthogonalEdgeStyle;rounded=0;orthogonalLoop=1;jettySize=auto;html=1;exitX=0.75;exitY=1;exitDx=0;exitDy=0;entryX=0.5;entryY=0;entryDx=0;entryDy=0;" edge="1" parent="OivCTFusflsnZYE-OFXO-19" source="OivCTFusflsnZYE-OFXO-20" target="OivCTFusflsnZYE-OFXO-36">
          <mxGeometry relative="1" as="geometry" />
        </mxCell>
        <mxCell id="OivCTFusflsnZYE-OFXO-20" value="domain get list" style="whiteSpace=wrap;html=1;" vertex="1" parent="OivCTFusflsnZYE-OFXO-19">
          <mxGeometry x="330" y="80" width="95" height="40" as="geometry" />
        </mxCell>
        <mxCell id="OivCTFusflsnZYE-OFXO-21" value="domain set" style="whiteSpace=wrap;html=1;" vertex="1" parent="OivCTFusflsnZYE-OFXO-19">
          <mxGeometry x="122.5" y="80" width="85" height="40" as="geometry" />
        </mxCell>
        <mxCell id="OivCTFusflsnZYE-OFXO-22" value="domain create" style="rounded=0;whiteSpace=wrap;html=1;" vertex="1" parent="OivCTFusflsnZYE-OFXO-19">
          <mxGeometry x="222.5" y="80" width="80" height="40" as="geometry" />
        </mxCell>
        <mxCell id="OivCTFusflsnZYE-OFXO-30" value="domain list add domain object" style="rounded=0;whiteSpace=wrap;html=1;" vertex="1" parent="OivCTFusflsnZYE-OFXO-19">
          <mxGeometry x="285" y="170" width="87.5" height="50" as="geometry" />
        </mxCell>
        <mxCell id="OivCTFusflsnZYE-OFXO-36" value="domain list remove domain object" style="rounded=0;whiteSpace=wrap;html=1;" vertex="1" parent="OivCTFusflsnZYE-OFXO-19">
          <mxGeometry x="385" y="170" width="85" height="50" as="geometry" />
        </mxCell>
        <mxCell id="OivCTFusflsnZYE-OFXO-42" value="domain get" style="whiteSpace=wrap;html=1;" vertex="1" parent="OivCTFusflsnZYE-OFXO-19">
          <mxGeometry x="12.5" y="80" width="95" height="40" as="geometry" />
        </mxCell>
        <mxCell id="OivCTFusflsnZYE-OFXO-49" value="baseListOrmObject" style="rounded=0;whiteSpace=wrap;html=1;" vertex="1" parent="OivCTFusflsnZYE-OFXO-19">
          <mxGeometry x="465" y="95" width="125" height="45" as="geometry" />
        </mxCell>
        <mxCell id="OivCTFusflsnZYE-OFXO-51" value="baseOrmFieldList" style="rounded=0;whiteSpace=wrap;html=1;" vertex="1" parent="OivCTFusflsnZYE-OFXO-19">
          <mxGeometry x="495" y="160" width="115" height="40" as="geometry" />
        </mxCell>
        <mxCell id="OivCTFusflsnZYE-OFXO-23" value="orm" style="swimlane;whiteSpace=wrap;html=1;" vertex="1" parent="1">
          <mxGeometry x="-63.75" y="1080" width="697.5" height="110" as="geometry" />
        </mxCell>
        <mxCell id="OivCTFusflsnZYE-OFXO-24" value="orm get" style="rounded=0;whiteSpace=wrap;html=1;" vertex="1" parent="OivCTFusflsnZYE-OFXO-23">
          <mxGeometry x="20" y="40" width="120" height="60" as="geometry" />
        </mxCell>
        <mxCell id="OivCTFusflsnZYE-OFXO-25" value="orm set" style="rounded=0;whiteSpace=wrap;html=1;" vertex="1" parent="OivCTFusflsnZYE-OFXO-23">
          <mxGeometry x="147.5" y="40" width="120" height="60" as="geometry" />
        </mxCell>
        <mxCell id="OivCTFusflsnZYE-OFXO-27" value="orm create" style="rounded=0;whiteSpace=wrap;html=1;" vertex="1" parent="OivCTFusflsnZYE-OFXO-23">
          <mxGeometry x="277.5" y="40" width="120" height="60" as="geometry" />
        </mxCell>
        <mxCell id="OivCTFusflsnZYE-OFXO-40" value="orm list add" style="rounded=0;whiteSpace=wrap;html=1;" vertex="1" parent="OivCTFusflsnZYE-OFXO-23">
          <mxGeometry x="417.5" y="40" width="92.5" height="60" as="geometry" />
        </mxCell>
        <mxCell id="OivCTFusflsnZYE-OFXO-41" value="orm list remove" style="rounded=0;whiteSpace=wrap;html=1;" vertex="1" parent="OivCTFusflsnZYE-OFXO-23">
          <mxGeometry x="527.5" y="40" width="120" height="60" as="geometry" />
        </mxCell>
        <mxCell id="OivCTFusflsnZYE-OFXO-28" value="domainOrmMap" style="rounded=0;whiteSpace=wrap;html=1;" vertex="1" parent="1">
          <mxGeometry x="-180" y="990" width="370" height="40" as="geometry" />
        </mxCell>
        <mxCell id="OivCTFusflsnZYE-OFXO-32" value="jimmer" style="swimlane;whiteSpace=wrap;html=1;" vertex="1" parent="1">
          <mxGeometry x="12.5" y="1290" width="707.5" height="150" as="geometry" />
        </mxCell>
        <mxCell id="OivCTFusflsnZYE-OFXO-33" value="temp draft get" style="rounded=0;whiteSpace=wrap;html=1;" vertex="1" parent="OivCTFusflsnZYE-OFXO-32">
          <mxGeometry x="15" y="60" width="120" height="60" as="geometry" />
        </mxCell>
        <mxCell id="OivCTFusflsnZYE-OFXO-34" value="changed temp draft set" style="rounded=0;whiteSpace=wrap;html=1;" vertex="1" parent="OivCTFusflsnZYE-OFXO-32">
          <mxGeometry x="147.5" y="60" width="120" height="60" as="geometry" />
        </mxCell>
        <mxCell id="OivCTFusflsnZYE-OFXO-35" value="create draft" style="rounded=0;whiteSpace=wrap;html=1;" vertex="1" parent="OivCTFusflsnZYE-OFXO-32">
          <mxGeometry x="277.5" y="60" width="120" height="60" as="geometry" />
        </mxCell>
        <mxCell id="OivCTFusflsnZYE-OFXO-37" value="changed temp draft list add" style="rounded=0;whiteSpace=wrap;html=1;" vertex="1" parent="OivCTFusflsnZYE-OFXO-32">
          <mxGeometry x="407.5" y="60" width="120" height="60" as="geometry" />
        </mxCell>
        <mxCell id="OivCTFusflsnZYE-OFXO-38" value="changed temp draft list remove" style="rounded=0;whiteSpace=wrap;html=1;" vertex="1" parent="OivCTFusflsnZYE-OFXO-32">
          <mxGeometry x="537.5" y="60" width="120" height="60" as="geometry" />
        </mxCell>
        <mxCell id="OivCTFusflsnZYE-OFXO-31" value="orm relate&lt;div&gt;one to one&lt;/div&gt;&lt;div&gt;one to many&lt;/div&gt;&lt;div&gt;many to many&lt;/div&gt;" style="rounded=0;whiteSpace=wrap;html=1;" vertex="1" parent="1">
          <mxGeometry x="-280" y="1060" width="82.5" height="60" as="geometry" />
        </mxCell>
        <mxCell id="OivCTFusflsnZYE-OFXO-45" value="aggregateRootCache" style="rounded=0;whiteSpace=wrap;html=1;" vertex="1" parent="1">
          <mxGeometry x="230" y="1000" width="185" height="40" as="geometry" />
        </mxCell>
        <mxCell id="OivCTFusflsnZYE-OFXO-46" style="edgeStyle=orthogonalEdgeStyle;rounded=0;orthogonalLoop=1;jettySize=auto;html=1;exitX=0.5;exitY=1;exitDx=0;exitDy=0;entryX=0.25;entryY=0;entryDx=0;entryDy=0;" edge="1" parent="1" source="OivCTFusflsnZYE-OFXO-30" target="OivCTFusflsnZYE-OFXO-45">
          <mxGeometry relative="1" as="geometry" />
        </mxCell>
        <mxCell id="OivCTFusflsnZYE-OFXO-47" value="find ormObject" style="edgeLabel;html=1;align=center;verticalAlign=middle;resizable=0;points=[];" vertex="1" connectable="0" parent="OivCTFusflsnZYE-OFXO-46">
          <mxGeometry x="0.4065" y="-1" relative="1" as="geometry">
            <mxPoint as="offset" />
          </mxGeometry>
        </mxCell>
      </root>
    </mxGraphModel>
  </diagram>
</mxfile>
